<?xml version="1.0" encoding="UTF-8" standalone="no"?>
<!-- Created with Inkscape (http://www.inkscape.org/) -->

<svg
   xmlns:dc="http://purl.org/dc/elements/1.1/"
   xmlns:cc="http://creativecommons.org/ns#"
   xmlns:rdf="http://www.w3.org/1999/02/22-rdf-syntax-ns#"
   xmlns:svg="http://www.w3.org/2000/svg"
   xmlns="http://www.w3.org/2000/svg"
   xmlns:xlink="http://www.w3.org/1999/xlink"
   xmlns:sodipodi="http://sodipodi.sourceforge.net/DTD/sodipodi-0.dtd"
   xmlns:inkscape="http://www.inkscape.org/namespaces/inkscape"
   width="88.370834mm"
   height="39.158333mm"
   viewBox="0 0 88.370834 39.158333"
   version="1.1"
   id="svg8"
   inkscape:version="0.92.3 (2405546, 2018-03-11)"
   sodipodi:docname="logo.svg">
  <defs
     id="defs2">
    <linearGradient
       inkscape:collect="always"
       id="linearGradient4657">
      <stop
         style="stop-color:#ffffff;stop-opacity:1;"
         offset="0"
         id="stop4653" />
      <stop
         style="stop-color:#ffffff;stop-opacity:0;"
         offset="1"
         id="stop4655" />
    </linearGradient>
    <linearGradient
       inkscape:collect="always"
       xlink:href="#linearGradient4657"
       id="linearGradient4659"
       x1="72.553268"
       y1="124.65644"
       x2="106.77079"
       y2="124.65644"
       gradientUnits="userSpaceOnUse" />
  </defs>
  <sodipodi:namedview
     id="base"
     pagecolor="#ffffff"
     bordercolor="#666666"
     borderopacity="1.0"
     inkscape:pageopacity="0.0"
     inkscape:pageshadow="2"
     inkscape:zoom="2.8"
     inkscape:cx="196.77763"
     inkscape:cy="65.536755"
     inkscape:document-units="mm"
     inkscape:current-layer="layer1"
     showgrid="false"
     showguides="true"
     inkscape:guide-bbox="true"
     fit-margin-top="0"
     fit-margin-left="0"
     fit-margin-right="0"
     fit-margin-bottom="0"
     inkscape:window-width="1920"
     inkscape:window-height="1017"
     inkscape:window-x="1358"
     inkscape:window-y="-8"
     inkscape:window-maximized="1" />
  <metadata
     id="metadata5">
    <rdf:RDF>
      <cc:Work
         rdf:about="">
        <dc:format>image/svg+xml</dc:format>
        <dc:type
           rdf:resource="http://purl.org/dc/dcmitype/StillImage" />
        <dc:title></dc:title>
      </cc:Work>
    </rdf:RDF>
  </metadata>
  <g
     inkscape:label="Calque 1"
     inkscape:groupmode="layer"
     id="layer1"
     transform="translate(-80.168747,-90.322624)">
    <rect
       style="fill:#233c4f;fill-opacity:1;fill-rule:evenodd;stroke-width:0.34335521"
       id="rect21"
       width="88.370834"
       height="39.158333"
       x="80.168747"
       y="90.322624" />
    <text
       xml:space="preserve"
       style="font-style:normal;font-weight:normal;font-size:20.55720139px;line-height:1.25;font-family:sans-serif;letter-spacing:0px;word-spacing:0px;fill:#fffffa;fill-opacity:1;stroke:#fffff6;stroke-width:0.51393002;stroke-opacity:1;"
       x="61.241348"
       y="176.6017"
       id="text4536"
       transform="scale(1.4127476,0.70784054)"><tspan
         sodipodi:role="line"
         id="tspan4534"
         x="61.241348"
         y="176.6017"
         style="font-style:normal;font-variant:normal;font-weight:normal;font-stretch:normal;font-family:Tahoma;-inkscape-font-specification:Tahoma;fill:#fffffa;fill-opacity:1;stroke:#fffff6;stroke-width:0.51393002;stroke-opacity:1;">LOGO</tspan></text>
    <text
       xml:space="preserve"
       style="font-style:normal;font-weight:normal;font-size:28.27757454px;line-height:1.25;font-family:sans-serif;letter-spacing:0px;word-spacing:0px;fill:#ffffff;fill-opacity:1;stroke:#ffffff;stroke-width:0.70693934;stroke-opacity:1;"
       x="71.070351"
       y="134.72205"
       id="text4536-2"
       transform="scale(1.2117553,0.82524911)"><tspan
         sodipodi:role="line"
         id="tspan4534-8"
         x="71.070351"
         y="134.72205"
         style="font-style:normal;font-variant:normal;font-weight:normal;font-stretch:normal;font-family:Tahoma;-inkscape-font-specification:Tahoma;fill:#ffffff;fill-opacity:1;stroke:#ffffff;stroke-width:0.70693934;stroke-opacity:1;">UN</tspan></text>
    <g
       id="g4645"
       transform="matrix(0.71357369,0,0,0.64425901,133.30907,90.194599)"
       style="fill:#ffffff;fill-opacity:1;stroke:#ffffff;stroke-opacity:1">
      <g
         id="g4588"
         style="fill:#ffffff;fill-opacity:1;stroke:#ffffff;stroke-opacity:1">
	<g
   id="g4586"
   style="fill:#ffffff;fill-opacity:1;stroke:#ffffff;stroke-opacity:1">
		<path
   id="path4584"
   d="M 38.831,14.26 C 38.64,14.027 38.355,13.891 38.056,13.891 H 34.255 C 33.317,11.417 32.095,8.993 30.706,8.078 25.901,4.917 13.156,4.917 8.351,8.078 6.961,8.994 5.744,11.421 4.801,13.891 H 1 c -0.302,0 -0.586,0.136 -0.775,0.369 -0.19,0.232 -0.266,0.539 -0.204,0.834 l 0.563,2.728 c 0.096,0.465 0.506,0.797 0.979,0.797 h 1.126 c -1.087,1.254 -1.614,2.833 -1.621,4.413 -0.007,1.952 0.734,3.716 2.089,4.964 0.015,0.013 0.03,0.022 0.044,0.035 v 3.817 c 0,0.827 0.672,1.5 1.5,1.5 h 3.506 c 0.828,0 1.5,-0.673 1.5,-1.5 v -1.534 h 19.641 v 1.534 c 0,0.827 0.672,1.5 1.5,1.5 h 3.506 c 0.826,0 1.5,-0.673 1.5,-1.5 v -3.742 c 1.438,-1.317 2.125,-3.129 2.134,-4.938 0.006,-1.634 -0.545,-3.271 -1.696,-4.551 h 1.201 c 0.475,0 0.885,-0.332 0.979,-0.798 l 0.564,-2.727 C 39.094,14.799 39.021,14.494 38.831,14.26 Z M 9.998,10.583 c 3.83,-2.521 15.229,-2.521 19.057,0 0.744,0.488 1.701,2.461 2.578,4.877 H 7.422 C 8.297,13.045 9.254,11.073 9.998,10.583 Z M 5.512,23.408 c 0,-1.63 1.322,-2.95 2.951,-2.95 1.631,0 2.951,1.32 2.951,2.95 0,1.63 -1.32,2.951 -2.951,2.951 -1.629,0 -2.951,-1.321 -2.951,-2.951 z m 25.119,2.951 c -1.629,0 -2.951,-1.321 -2.951,-2.951 0,-1.63 1.322,-2.95 2.951,-2.95 1.631,0 2.951,1.32 2.951,2.95 0,1.63 -1.322,2.951 -2.951,2.951 z"
   inkscape:connector-curvature="0"
   style="fill:#ffffff;fill-opacity:1;stroke:#ffffff;stroke-opacity:1" />

	</g>

</g>
      <g
         id="g4590"
         style="fill:#ffffff;fill-opacity:1;stroke:#ffffff;stroke-opacity:1">
</g>
      <g
         id="g4592"
         style="fill:#ffffff;fill-opacity:1;stroke:#ffffff;stroke-opacity:1">
</g>
      <g
         id="g4594"
         style="fill:#ffffff;fill-opacity:1;stroke:#ffffff;stroke-opacity:1">
</g>
      <g
         id="g4596"
         style="fill:#ffffff;fill-opacity:1;stroke:#ffffff;stroke-opacity:1">
</g>
      <g
         id="g4598"
         style="fill:#ffffff;fill-opacity:1;stroke:#ffffff;stroke-opacity:1">
</g>
      <g
         id="g4600"
         style="fill:#ffffff;fill-opacity:1;stroke:#ffffff;stroke-opacity:1">
</g>
      <g
         id="g4602"
         style="fill:#ffffff;fill-opacity:1;stroke:#ffffff;stroke-opacity:1">
</g>
      <g
         id="g4604"
         style="fill:#ffffff;fill-opacity:1;stroke:#ffffff;stroke-opacity:1">
</g>
      <g
         id="g4606"
         style="fill:#ffffff;fill-opacity:1;stroke:#ffffff;stroke-opacity:1">
</g>
      <g
         id="g4608"
         style="fill:#ffffff;fill-opacity:1;stroke:#ffffff;stroke-opacity:1">
</g>
      <g
         id="g4610"
         style="fill:#ffffff;fill-opacity:1;stroke:#ffffff;stroke-opacity:1">
</g>
      <g
         id="g4612"
         style="fill:#ffffff;fill-opacity:1;stroke:#ffffff;stroke-opacity:1">
</g>
      <g
         id="g4614"
         style="fill:#ffffff;fill-opacity:1;stroke:#ffffff;stroke-opacity:1">
</g>
      <g
         id="g4616"
         style="fill:#ffffff;fill-opacity:1;stroke:#ffffff;stroke-opacity:1">
</g>
      <g
         id="g4618"
         style="fill:#ffffff;fill-opacity:1;stroke:#ffffff;stroke-opacity:1">
</g>
    </g>
  </g>
</svg>
