<?xml version="1.0" encoding="UTF-8" standalone="no"?>
<!-- Created with Inkscape (http://www.inkscape.org/) -->

<svg
   xmlns:dc="http://purl.org/dc/elements/1.1/"
   xmlns:cc="http://creativecommons.org/ns#"
   xmlns:rdf="http://www.w3.org/1999/02/22-rdf-syntax-ns#"
   xmlns:svg="http://www.w3.org/2000/svg"
   xmlns="http://www.w3.org/2000/svg"
   xmlns:sodipodi="http://sodipodi.sourceforge.net/DTD/sodipodi-0.dtd"
   xmlns:inkscape="http://www.inkscape.org/namespaces/inkscape"
   width="543.73846mm"
   height="125.4563mm"
   viewBox="0 0 543.73846 125.45629"
   version="1.1"
   id="svg8"
   inkscape:version="0.92.3 (2405546, 2018-03-11)"
   sodipodi:docname="logo1.svg">
  <defs
     id="defs2">
    <meshgradient
       inkscape:collect="always"
       id="meshgradient4589"
       gradientUnits="userSpaceOnUse"
       x="-353.13812"
       y="42.818932">
      <meshrow
         id="meshrow4591">
        <meshpatch
           id="meshpatch4593">
          <stop
             path="c 137.362,0  274.725,0  412.087,0"
             style="stop-color:#ffffff;stop-opacity:1"
             id="stop4595" />
          <stop
             path="c 0,22.9505  0,45.901  0,68.8515"
             style="stop-color:#000000;stop-opacity:1"
             id="stop4597" />
          <stop
             path="c -137.362,0  -274.725,0  -412.087,0"
             style="stop-color:#ffffff;stop-opacity:1"
             id="stop4599" />
          <stop
             path="c 0,-22.9505  0,-45.901  0,-68.8515"
             style="stop-color:#000000;stop-opacity:1"
             id="stop4601" />
        </meshpatch>
      </meshrow>
    </meshgradient>
    <meshgradient
       inkscape:collect="always"
       id="meshgradient4603"
       gradientUnits="userSpaceOnUse"
       x="-353.37518"
       y="42.581867">
      <meshrow
         id="meshrow4605">
        <meshpatch
           id="meshpatch4607">
          <stop
             path="c 137.52,0  275.041,0  412.561,0"
             style="stop-color:#ffffff;stop-opacity:1"
             id="stop4609" />
          <stop
             path="c 0,23.1086  0,46.2171  0,69.3257"
             style="stop-color:#800080;stop-opacity:1"
             id="stop4611" />
          <stop
             path="c -137.52,0  -275.041,0  -412.561,0"
             style="stop-color:#ffffff;stop-opacity:1"
             id="stop4613" />
          <stop
             path="c 0,-23.1086  0,-46.2171  0,-69.3257"
             style="stop-color:#800080;stop-opacity:1"
             id="stop4615" />
        </meshpatch>
      </meshrow>
    </meshgradient>
  </defs>
  <sodipodi:namedview
     id="base"
     pagecolor="#ffffff"
     bordercolor="#666666"
     borderopacity="1.0"
     inkscape:pageopacity="0.0"
     inkscape:pageshadow="2"
     inkscape:zoom="0.25887141"
     inkscape:cx="1097.4365"
     inkscape:cy="165.9403"
     inkscape:document-units="mm"
     inkscape:current-layer="layer1"
     showgrid="false"
     fit-margin-top="0"
     fit-margin-left="0"
     fit-margin-right="0"
     fit-margin-bottom="0"
     inkscape:window-width="1920"
     inkscape:window-height="1001"
     inkscape:window-x="-9"
     inkscape:window-y="-9"
     inkscape:window-maximized="1"
     showguides="true"
     inkscape:guide-bbox="true">
    <sodipodi:guide
       position="-155.35382,203.57221"
       orientation="1,0"
       id="guide4634"
       inkscape:locked="false" />
    <sodipodi:guide
       position="-320.92831,-94.870686"
       orientation="1,0"
       id="guide4636"
       inkscape:locked="false" />
  </sodipodi:namedview>
  <metadata
     id="metadata5">
    <rdf:RDF>
      <cc:Work
         rdf:about="">
        <dc:format>image/svg+xml</dc:format>
        <dc:type
           rdf:resource="http://purl.org/dc/dcmitype/StillImage" />
        <dc:title></dc:title>
      </cc:Work>
    </rdf:RDF>
  </metadata>
  <g
     inkscape:label="Calque 1"
     inkscape:groupmode="layer"
     id="layer1"
     transform="translate(475.57175,-14.74339)">
    <text
       xml:space="preserve"
       style="font-style:normal;font-weight:normal;font-size:91.03160095px;line-height:20;font-family:sans-serif;letter-spacing:0px;word-spacing:0px;fill:#ffffff;fill-opacity:1;stroke:#ffffff;stroke-width:4;stroke-miterlimit:4;stroke-dasharray:none;stroke-opacity:1"
       x="-361.05005"
       y="110.38145"
       id="text4577"><tspan
         sodipodi:role="line"
         id="tspan4575"
         x="-361.05005"
         y="110.38145"
         style="fill:#ffffff;fill-opacity:1;stroke:#ffffff;stroke-width:4;stroke-miterlimit:4;stroke-dasharray:none;stroke-opacity:1">UN LOGO</tspan></text>
    <rect
       style="fill:#ffffff;fill-opacity:1;stroke:none;stroke-width:2.07032371;stroke-linejoin:miter;stroke-miterlimit:4;stroke-dasharray:none;stroke-opacity:1"
       id="rect4579"
       width="543.73846"
       height="11.899016"
       x="-475.57175"
       y="14.74339" />
    <rect
       style="fill:#ffffff;fill-opacity:1;stroke:none;stroke-width:2.07032347;stroke-linejoin:miter;stroke-miterlimit:4;stroke-dasharray:none;stroke-opacity:1"
       id="rect4579-7"
       width="543.73846"
       height="11.899016"
       x="-475.57175"
       y="128.30067" />
    <g
       id="g4703"
       transform="matrix(2.5670459,0,0,2.5670459,-465.98939,23.84662)"
       style="fill:#ffffff">
      <g
         id="g4646"
         style="fill:#ffffff">
	<g
   id="g4644"
   style="fill:#ffffff">
		<path
   id="path4642"
   d="M 38.831,14.26 C 38.64,14.027 38.355,13.891 38.056,13.891 H 34.255 C 33.317,11.417 32.095,8.993 30.706,8.078 25.901,4.917 13.156,4.917 8.351,8.078 6.961,8.994 5.744,11.421 4.801,13.891 H 1 c -0.302,0 -0.586,0.136 -0.775,0.369 -0.19,0.232 -0.266,0.539 -0.204,0.834 l 0.563,2.728 c 0.096,0.465 0.506,0.797 0.979,0.797 h 1.126 c -1.087,1.254 -1.614,2.833 -1.621,4.413 -0.007,1.952 0.734,3.716 2.089,4.964 0.015,0.013 0.03,0.022 0.044,0.035 v 3.817 c 0,0.827 0.672,1.5 1.5,1.5 h 3.506 c 0.828,0 1.5,-0.673 1.5,-1.5 v -1.534 h 19.641 v 1.534 c 0,0.827 0.672,1.5 1.5,1.5 h 3.506 c 0.826,0 1.5,-0.673 1.5,-1.5 v -3.742 c 1.438,-1.317 2.125,-3.129 2.134,-4.938 0.006,-1.634 -0.545,-3.271 -1.696,-4.551 h 1.201 c 0.475,0 0.885,-0.332 0.979,-0.798 l 0.564,-2.727 C 39.094,14.799 39.021,14.494 38.831,14.26 Z M 9.998,10.583 c 3.83,-2.521 15.229,-2.521 19.057,0 0.744,0.488 1.701,2.461 2.578,4.877 H 7.422 C 8.297,13.045 9.254,11.073 9.998,10.583 Z M 5.512,23.408 c 0,-1.63 1.322,-2.95 2.951,-2.95 1.631,0 2.951,1.32 2.951,2.95 0,1.63 -1.32,2.951 -2.951,2.951 -1.629,0 -2.951,-1.321 -2.951,-2.951 z m 25.119,2.951 c -1.629,0 -2.951,-1.321 -2.951,-2.951 0,-1.63 1.322,-2.95 2.951,-2.95 1.631,0 2.951,1.32 2.951,2.95 0,1.63 -1.322,2.951 -2.951,2.951 z"
   inkscape:connector-curvature="0"
   style="fill:#ffffff" />

	</g>

</g>
      <g
         id="g4648"
         style="fill:#ffffff">
</g>
      <g
         id="g4650"
         style="fill:#ffffff">
</g>
      <g
         id="g4652"
         style="fill:#ffffff">
</g>
      <g
         id="g4654"
         style="fill:#ffffff">
</g>
      <g
         id="g4656"
         style="fill:#ffffff">
</g>
      <g
         id="g4658"
         style="fill:#ffffff">
</g>
      <g
         id="g4660"
         style="fill:#ffffff">
</g>
      <g
         id="g4662"
         style="fill:#ffffff">
</g>
      <g
         id="g4664"
         style="fill:#ffffff">
</g>
      <g
         id="g4666"
         style="fill:#ffffff">
</g>
      <g
         id="g4668"
         style="fill:#ffffff">
</g>
      <g
         id="g4670"
         style="fill:#ffffff">
</g>
      <g
         id="g4672"
         style="fill:#ffffff">
</g>
      <g
         id="g4674"
         style="fill:#ffffff">
</g>
      <g
         id="g4676"
         style="fill:#ffffff">
</g>
    </g>
  </g>
</svg>
